# xmcd CD database file
#
# Track frame offsets:
#	150
#	118326
#	138549
#	201516
#	261589
#
# Disc length: 3708 seconds
#
# Revision: 0
# Processed by: cddbd v1.5PL3 Copyright (c) Steve Scherf et al.
# Submitted via: CDex 1.51
#
DISCID=560e7a05
DTITLE=Michael Hammer - Doorway to The Pleiades
DYEAR=1995
DGENRE=New Age
TTITLE0=Ascension - The Time is Now
TTITLE1=Restoration Of The Template Of Humanity
TTITLE2=Doorway To The Pleiades
TTITLE3=Ancient Of Days
TTITLE4=Angel Harp
EXTD=YEAR: 1995
EXTT0=
EXTT1=
EXTT2=
EXTT3=
EXTT4=
PLAYORDER=
